<?xml version="1.0" encoding="UTF-8" standalone="no"?>
<svg
   xmlns:dc="http://purl.org/dc/elements/1.1/"
   xmlns:cc="http://creativecommons.org/ns#"
   xmlns:rdf="http://www.w3.org/1999/02/22-rdf-syntax-ns#"
   xmlns:svg="http://www.w3.org/2000/svg"
   xmlns="http://www.w3.org/2000/svg"
   xmlns:sodipodi="http://sodipodi.sourceforge.net/DTD/sodipodi-0.dtd"
   xmlns:inkscape="http://www.inkscape.org/namespaces/inkscape"
   width="845.92285mm"
   height="754.29224mm"
   viewBox="0 0 845.92284 754.29225"
   version="1.1"
   id="svg873"
   inkscape:version="1.0.1 (3bc2e813f5, 2020-09-07)"
   sodipodi:docname="peep_green_logo.svg">
  <defs
     id="defs867" />
  <sodipodi:namedview
     id="base"
     pagecolor="#ffffff"
     bordercolor="#666666"
     borderopacity="1.0"
     inkscape:pageopacity="0.0"
     inkscape:pageshadow="2"
     inkscape:zoom="0.12374369"
     inkscape:cx="365.93538"
     inkscape:cy="1295.6035"
     inkscape:document-units="mm"
     inkscape:current-layer="layer1"
     inkscape:document-rotation="0"
     showgrid="false"
     inkscape:window-width="1920"
     inkscape:window-height="1001"
     inkscape:window-x="-9"
     inkscape:window-y="-9"
     inkscape:window-maximized="1" />
  <metadata
     id="metadata870">
    <rdf:RDF>
      <cc:Work
         rdf:about="">
        <dc:format>image/svg+xml</dc:format>
        <dc:type
           rdf:resource="http://purl.org/dc/dcmitype/StillImage" />
        <dc:title></dc:title>
      </cc:Work>
    </rdf:RDF>
  </metadata>
  <g
     inkscape:label="Layer 1"
     inkscape:groupmode="layer"
     id="layer1"
     transform="translate(682.63979,-200.70114)">
    <g
       id="g2099"
       transform="matrix(19.984931,0,0,18.822554,-1581.0196,-1877.8148)">
      <path
         style="fill:#292c28;stroke:none;stroke-width:0.169333"
         d="m 59.830717,110.45802 c -0.57558,0.18455 -0.35138,1.12048 -0.2911,1.54255 0.22537,1.57821 0.40017,3.16381 0.62755,4.74134 0.0638,0.4425 0.20765,1.53522 0.92127,1.24256 0.56491,-0.23168 0.35123,-1.1308 0.28692,-1.58123 -0.22525,-1.57793 -0.39289,-3.16525 -0.62769,-4.74133 -0.0663,-0.44542 -0.23915,-1.42121 -0.91695,-1.20389 m 8.538534,0.19586 c -0.43722,0.32011 -0.46567,1.20041 -0.5627,1.68536 -0.28905,1.44203 -0.73287,2.93685 -0.86207,4.40189 -0.0428,0.48439 0.23774,1.27845 0.86902,0.83947 0.44975,-0.3129 0.47125,-1.19798 0.56879,-1.68536 0.28871,-1.44341 0.69884,-2.93477 0.82821,-4.40188 0.0403,-0.45625 -0.22606,-1.28986 -0.84125,-0.83948 m -8.081094,-0.008 c 0.48429,2.01086 1.2844,5.26095 0.84666,7.28133 h -0.33867 l -1.18532,-7.112 0.67733,-0.16933 m 8.805334,0.16933 c -0.39743,2.10901 -0.47989,4.88982 -1.524,6.77333 h -0.16934 c -0.71238,-1.76123 0.65736,-5.09326 1.016,-6.94266 l 0.67734,0.16933 m -16.831024,3.05598 c -0.41145,0.32655 -0.0593,0.99017 0.1134,1.34669 0.6156,1.27032 1.37516,2.51937 2.11001,3.72455 0.22163,0.36348 0.7525,1.20841 1.29496,0.83282 0.47382,-0.32809 -0.0154,-1.15477 -0.19756,-1.50937 -0.64771,-1.26098 -1.37979,-2.51095 -2.11666,-3.72207 -0.21922,-0.36032 -0.69512,-1.07665 -1.20415,-0.67262 m 3.28436,5.91869 h -0.16934 c -1.22042,-1.60061 -2.64786,-3.82135 -3.21733,-5.75734 l 0.16933,-0.16933 c 1.22027,0.62387 3.68534,4.60162 3.21734,5.92667 m -2.54,5.08 c -1.29019,1.29018 -3.34341,2.99025 -3.55601,4.91066 h -0.16933 c -0.55717,-1.94902 -1.41983,-3.75766 -1.8628,-5.75733 -0.0916,-0.41375 -0.39351,-1.637 -1.08381,-1.1707 -0.47257,0.31922 -0.18946,1.23992 -0.10073,1.6787 0.33171,1.64035 0.88343,3.19921 1.52531,4.74133 2.57082,6.17661 7.99285,9.82134 14.56069,9.82134 v 0.16933 c -5.40796,0 -9.51314,-1.831 -12.88644,-6.26533 -1.25968,-1.65591 -2.21913,-3.4688 -2.93145,-5.41867 -0.16941,-0.46374 -0.39578,-1.64385 -1.09766,-1.53733 -0.88263,0.13396 -0.22646,1.59253 -0.0741,2.04533 0.65584,1.94869 1.63858,3.75124 2.83815,5.41867 3.27714,4.55506 8.17709,7.3875 13.81282,6.94266 -1.50761,2.01761 -1.17687,5.23122 -0.89501,7.62 0.0725,0.61418 -0.23311,2.19693 0.57817,2.41267 1.25596,0.33426 0.82484,-3.72432 0.82484,-4.44467 1.53196,0.571 3.223264,0.79519 4.554224,-0.39624 2.03335,-1.82033 1.05105,-5.39208 -1.50622,-6.03842 v -0.16934 l 3.048,-1.69333 v 5.92667 c 0,0.72 -0.20896,1.87401 0.29498,2.46651 0.62501,0.73473 3.951729,0.6963 4.731171,0.18897 1.512318,-0.98416 -1.046142,-1.46998 -1.63948,-1.47015 h -1.693341 v -3.21733 c 0.60181,0 4.101941,0.3048 3.209379,-1.13217 -0.463798,-0.74676 -2.448399,-0.39183 -3.209379,-0.39183 v -2.54 c 0.72526,0 3.183641,0.3915 3.428661,-0.52985 0.31954,-1.20074 -2.631271,-0.82482 -3.259331,-0.82482 0.41148,-0.41148 2.840911,-2.42909 1.805609,-3.03344 -0.65278,-0.381 -1.533829,0.67869 -1.974939,1.03446 -1.62391,1.30996 -3.4439,2.37778 -5.41867,3.06663 -6.412714,2.23655 -11.991744,-1.87537 -15.239994,-7.16365 1.64543,0.20913 3.13558,-2.83701 4.23333,-3.88799 2.61354,-2.50212 6.29048,-4.81219 9.99066,-5.07152 3.892304,-0.2728 7.430014,1.0648 10.153405,3.88017 1.33045,1.37551 2.14952,4.10821 4.07061,4.57134 -1.064102,0.45788 -2.337142,0.47159 -3.3616,0.99128 -0.48109,0.24401 -0.65346,0.86885 -0.14038,1.20464 1.11184,0.72813 4.64566,-0.80925 5.872638,-1.11676 0.441802,-0.11057 1.533822,-0.21844 1.445102,-0.89018 -0.15816,-1.19905 -3.26898,-1.11879 -3.948862,-2.08975 -1.34874,-1.92562 -1.968328,-4.0158 -3.762248,-5.70407 -5.124201,-4.82248 -12.601505,-4.62384 -18.456655,-1.19853 -1.75502,1.0267 -3.49667,2.23754 -4.89551,3.72403 -0.42505,0.45166 -1.22946,1.18142 -1.24269,1.85208 -0.0115,0.58111 0.62552,0.70902 1.05833,0.50995 0.91073,-0.41886 1.5499,-1.44595 2.37054,-2.02402 m 28.786665,4.91066 v 0.16934 c -1.60375,0.80501 -3.666752,1.10981 -5.418672,1.48844 -0.42486,0.0918 -1.378198,0.48073 -1.735328,0.0906 -0.34984,-0.38202 0.27077,-0.71306 0.55339,-0.82008 0.991438,-0.37541 2.165598,-0.61773 3.213938,-0.75895 -0.390988,-0.67666 -1.18432,-0.75811 -1.633728,-1.39091 -1.17703,-1.65697 -2.02657,-3.29411 -3.6156,-4.65426 -4.699001,-4.02211 -10.854785,-3.69379 -15.917335,-0.59084 -2.05281,1.2582 -3.92808,2.87715 -5.41618,4.77334 -0.3248,0.41385 -1.10898,1.96867 -1.79107,1.73533 -0.91989,-0.31445 1.11636,-2.59471 1.38472,-2.92066 2.07621,-2.52182 4.74697,-4.12444 7.51586,-5.75734 -2.25548,-0.002 -5.03265,2.50414 -6.604,3.92342 -0.39957,0.3609 -1.62372,2.01057 -2.26522,1.6348 -0.44828,-0.2626 0.0551,-0.91139 0.24328,-1.15555 0.76911,-0.99758 1.72729,-1.81283 2.69928,-2.60519 3.19682,-2.60606 7.67765,-4.50551 11.853324,-4.50551 4.18508,0 8.073141,2.13015 10.582831,5.41737 0.927438,1.21493 1.42545,3.30261 2.52662,4.2843 0.98535,0.87833 2.67598,0.98975 3.82389,1.64236 m -35.052005,-6.94266 c 1.06841,2.18259 1.27623,4.7222 2.41458,6.94266 2.90515,5.66674 9.07012,9.90651 15.534754,7.83235 2.91863,-0.93642 4.80466,-3.21903 7.450671,-4.44568 0.19593,1.30979 -1.342481,2.23859 -2.032001,3.21733 0.5588,0 3.351611,-0.32969 3.351611,0.508 0,0.52341 -0.806702,0.50072 -1.150282,0.50716 -0.952329,0.018 -2.249589,-0.26044 -2.360679,1.01769 -0.11396,1.30929 0.34849,1.96325 1.683351,2.02455 0.3854,0.0176 1.59647,-0.18051 1.706708,0.37406 0.0991,0.49885 -0.747948,0.47311 -1.029538,0.47836 -1.039551,0.0198 -2.155111,-0.11887 -2.338501,1.18686 -0.11989,0.85378 -0.23165,2.37304 0.82211,2.65481 0.54458,0.14563 2.932851,-0.31784 2.932851,0.56185 0,0.46295 -0.577422,0.49005 -0.90914,0.50478 -0.75828,0.0334 -3.406321,0.3937 -3.791721,-0.3893 -0.31682,-0.64414 -0.10211,-1.78257 -0.10211,-2.48615 0,-1.95038 0.18763,-4.00406 -0.16933,-5.92667 l -3.556,2.032 v 0.16934 c 2.54423,1.06629 4.05909,4.65582 1.01532,6.27888 -1.24527,0.66412 -2.606044,0.17577 -3.893994,-0.0136 0,1.17077 0.0962,2.38692 -0.01,3.55278 -0.0317,0.34917 -0.25924,1.00195 -0.73776,0.66599 -0.54123,-0.38015 -0.26824,-1.94818 -0.26824,-2.52544 0,-2.646 -0.0553,-4.79907 0.84666,-7.28133 -6.3766,0 -11.46877,-2.88019 -14.79902,-8.46667 -0.976519,-1.63813 -2.045709,-3.64913 -2.134309,-5.588 0.83442,0.27014 0.91709,1.1066 1.19435,1.86267 0.48144,1.31284 1.11225,2.54627 1.8628,3.72533 2.46939,3.87926 6.38383,7.03022 10.99752,7.69129 1.71481,0.24554 4.4069,0.127 5.757344,-1.0873 -1.525024,0.19695 -3.018544,0.62722 -4.572004,0.47923 -5.40227,-0.51444 -9.68453,-4.18592 -12.06448,-8.94588 -0.71022,-1.42037 -2.96087,-5.74816 -1.65153,-7.112 m 17.10267,0.24433 c -6.15428,0.89592 -4.58367,10.08619 1.524004,9.01329 5.56159,-0.97688 4.01219,-9.81923 -1.524004,-9.01329 m -8.97467,0.26367 -0.16933,0.16933 0.16933,-0.16933 m 8.63601,0.0557 c 5.618654,-0.9852 7.165854,7.51117 1.524004,8.5016 -5.341104,0.9376 -6.872114,-7.56382 -1.524004,-8.5016 m -9.14401,0.283 -0.508,0.508 0.508,-0.508 m -0.67733,0.508 -0.67733,0.67734 0.67733,-0.67734 m 10.16,0.0798 c -4.37269,0.77404 -3.36516,7.69595 1.016004,6.95292 4.56134,-0.77369 3.49809,-7.75202 -1.016004,-6.95292 m -0.16933,0.31463 c 4.079924,-0.7364 5.637114,5.41688 1.524004,6.31283 -4.137564,0.90102 -5.689264,-5.56105 -1.524004,-6.31283 m -14.054671,5.36287 -0.16933,0.16933 0.16933,-0.16933 m 26.416004,14.90133 c 0,-0.80501 -0.28752,-2.30242 0.17408,-2.99415 0.568449,-0.85209 2.030981,-0.10583 2.82008,-0.49462 0.544401,-0.2684 0.39878,-1.03853 -0.140549,-1.19871 -0.840402,-0.2496 -1.979682,-0.0539 -2.853611,-0.0539 v -2.54 c 0.57608,0 4.30988,0.31428 3.378711,-1.09847 -0.50055,-0.75946 -4.585711,-0.52019 -4.946391,0.27686 -0.296511,0.65566 -0.125651,1.64237 -0.125651,2.34561 0,1.90534 -0.589788,5.14621 0.271431,6.88882 0.343249,0.69426 4.498861,0.70358 4.972489,0.0975 1.177031,-1.50673 -2.9884,-1.22902 -3.550589,-1.22902 m 3.217341,-3.72533 c -0.85463,0.20354 -2.27313,-0.13767 -2.994152,0.34341 -0.783338,0.52273 -0.39252,2.7183 -0.39252,3.55125 0.470411,0 4.318852,-0.23706 3.54144,0.89104 -0.420629,0.61027 -4.298868,0.56371 -4.62466,-0.0982 -0.786048,-1.59766 -0.102108,-5.10303 -0.102108,-6.88882 0,-0.6184 -0.177461,-1.5792 0.102108,-2.14748 0.306152,-0.6223 4.347462,-0.70849 4.483262,-0.0251 0.109058,0.54881 -0.90559,0.47582 -1.198711,0.47921 -1.407829,0.0166 -3.452191,0.89781 -2.05604,2.65549 0.856149,1.07797 2.751331,-0.37525 3.241381,1.23918 m 2.54,4.74133 c 0.608579,0.31902 1.170088,0.49073 1.862659,0.50546 4.609261,0.098 4.932011,-6.763 0.338669,-7.04528 -4.273629,-0.26281 -3.725328,4.56048 -3.725328,7.38649 0,0.78604 -0.41402,3.29048 0.532379,3.61323 1.474891,0.50309 0.991621,-3.67826 0.991621,-4.4599 m -0.169341,-0.16933 -0.172551,3.55515 c -0.0118,0.26822 -0.0344,0.94861 -0.475988,0.86089 -0.694272,-0.13801 -0.34426,-2.68427 -0.39624,-3.23071 -0.246721,-2.59283 -0.761161,-6.98229 2.907448,-7.26542 3.02396,-0.23334 5.028351,3.72872 2.508671,5.77715 -1.384969,1.1259 -2.830229,0.71493 -4.37134,0.30294 m 1.524,-5.13876 c -2.944699,0.92253 -1.58546,5.55041 1.354669,4.66327 2.94318,-0.88798 1.703491,-5.62136 -1.354669,-4.66327 m -19.473164,0.1844 c -2.91475,1.11947 -1.00398,5.59054 1.862334,4.49005 2.9569,-1.13538 1.10642,-5.63017 -1.862334,-4.49005 m 19.811833,-0.0564 c 2.59842,-0.52916 3.534831,3.57158 1.015831,4.25992 -2.903389,0.7935 -3.96054,-3.66031 -1.015831,-4.25992 m -19.303999,0.16697 c 2.83058,-0.63585 3.62052,3.74548 0.84667,4.27685 -2.684954,0.51426 -3.542864,-3.67115 -0.84667,-4.27685 z"
         id="path877-3" />
      <path
         style="fill:#7fff2a;fill-opacity:1;stroke:none;stroke-width:0.0944941"
         d="m 74.730553,131.52639 c -0.06236,-0.0624 -0.113393,-0.16558 -0.113393,-0.22938 0,-0.35789 1.27965,-0.85582 2.962524,-1.15276 l 0.924859,-0.16318 -0.202462,-0.25739 c -0.111355,-0.14157 -0.387945,-0.36609 -0.614646,-0.49895 -0.57124,-0.33477 -0.90897,-0.73474 -2.037148,-2.41261 -2.191793,-3.25971 -4.757522,-5.05145 -8.194848,-5.72274 -1.136476,-0.22195 -3.444349,-0.21752 -4.650036,0.009 -4.232818,0.79498 -8.729797,3.73376 -11.324677,7.40069 -0.730798,1.03272 -1.006758,1.28403 -1.355686,1.23457 -0.702008,-0.0995 0.195586,-1.62983 2.144276,-3.65581 1.439379,-1.49647 3.166652,-2.79445 5.740514,-4.31378 0.506724,-0.29912 0.921319,-0.57364 0.921319,-0.61005 0,-0.13933 -1.169766,0.10235 -1.806165,0.37316 -1.388843,0.59101 -3.465848,2.15339 -5.281798,3.97311 -1.046707,1.04888 -1.496081,1.33984 -1.747316,1.13133 -0.211807,-0.17574 -0.173802,-0.39142 0.156964,-0.89079 0.648896,-0.97966 2.660917,-2.76622 4.473329,-3.97208 1.987073,-1.32206 4.891259,-2.52826 7.181548,-2.98271 1.419625,-0.28169 3.565049,-0.34987 4.773073,-0.15168 1.424453,0.23369 2.504051,0.58425 3.825885,1.24231 1.397284,0.69563 2.603295,1.55973 3.648537,2.61417 1.059711,1.06903 1.510456,1.7218 2.309497,3.34462 1.120431,2.27554 1.510377,2.65493 3.341124,3.25069 1.318673,0.42911 1.910046,0.67615 1.874422,0.78303 -0.05011,0.15033 -1.313696,0.61602 -2.364404,0.87138 -1.667404,0.40524 -3.996385,0.89936 -4.239069,0.89936 -0.128056,0 -0.283856,-0.051 -0.346223,-0.11339 z"
         id="path1465" />
      <path
         style="fill:#7fff2a;fill-opacity:1;stroke:none;stroke-width:0.0944941"
         d="m 54.808586,118.90514 c -1.064511,-1.51716 -1.897925,-3.01691 -2.363314,-4.25282 -0.262231,-0.69639 -0.260411,-0.68292 -0.09229,-0.68292 0.19059,0 1.174509,1.08435 1.679627,1.85107 0.56056,0.85088 1.151104,2.02748 1.344552,2.67888 0.158149,0.53255 0.204523,1.23534 0.08134,1.23262 -0.03899,-8e-4 -0.331443,-0.37294 -0.649911,-0.82683 z"
         id="path1469" />
      <path
         style="fill:#7fff2a;fill-opacity:1;stroke:none;stroke-width:0.0944941"
         d="m 67.346753,117.20824 c -0.233817,-0.84198 -0.04449,-2.18025 0.692148,-4.89249 0.335597,-1.23564 0.443177,-1.51632 0.588753,-1.53607 0.40599,-0.0551 0.412308,0.0435 0.125815,1.96265 -0.15118,1.0127 -0.343911,2.1602 -0.428292,2.54999 -0.163777,0.75655 -0.658209,2.13602 -0.796155,2.22128 -0.04575,0.0283 -0.127775,-0.10914 -0.182269,-0.30536 z"
         id="path1471" />
      <path
         style="fill:#7fff2a;fill-opacity:1;stroke:none;stroke-width:0.0944941"
         d="m 60.821028,117.79166 c 0,-0.0286 -0.256689,-1.58782 -0.570416,-3.46494 -0.594865,-3.55923 -0.595124,-3.56483 -0.165555,-3.56867 0.182616,-0.002 0.232405,0.15104 0.585042,1.79394 0.459928,2.14277 0.664107,4.35231 0.469347,5.07905 -0.04825,0.18005 -0.318418,0.31633 -0.318418,0.16062 z"
         id="path1473" />
      <path
         style="fill:#7fff2a;fill-opacity:1;stroke:none;stroke-width:0.0944941"
         d="m 61.649232,150.05556 c -0.334645,-0.18728 -0.364125,-0.60896 -0.26746,-3.82568 0.09747,-3.24368 0.204087,-4.12397 0.659927,-5.44889 l 0.18656,-0.54225 H 61.77729 c -0.740503,0 -2.456759,-0.19343 -3.367643,-0.37955 -4.304646,-0.87958 -7.967369,-3.41828 -10.496272,-7.27515 -1.486813,-2.26756 -2.665614,-5.01227 -2.570975,-5.98625 l 0.02885,-0.29692 0.288639,0.28348 c 0.203743,0.2001 0.392361,0.58475 0.641268,1.30771 0.734841,2.13441 2.231255,4.65822 3.818859,6.4408 2.408801,2.70463 5.236797,4.40929 8.4804,5.11181 1.022565,0.22148 3.314274,0.22541 4.29948,0.007 0.87835,-0.19438 2.319506,-0.89404 2.163302,-1.05024 -0.02394,-0.024 -0.679924,0.0641 -1.457759,0.19563 -2.445195,0.41348 -4.155064,0.29063 -6.25125,-0.44912 -4.168888,-1.47124 -7.314855,-4.64061 -9.613127,-9.68466 -1.26455,-2.77532 -1.625296,-4.45095 -1.14636,-5.32469 l 0.127487,-0.23259 0.160586,0.37433 c 0.277691,0.64729 0.518909,1.37509 0.860049,2.59493 0.802664,2.87014 1.328733,4.09466 2.487608,5.79036 2.19193,3.2073 5.093353,5.33946 8.464478,6.22027 0.752975,0.19674 1.056219,0.2217 2.645833,0.21777 1.633561,-0.004 1.878661,-0.0268 2.719287,-0.253 1.621007,-0.43611 2.818762,-1.09115 5.425432,-2.96711 0.529746,-0.38124 1.316408,-0.90589 1.748139,-1.16589 l 0.784969,-0.47272 0.02909,0.27696 c 0.04442,0.42285 -0.278463,0.94978 -1.161696,1.89584 -0.442489,0.47396 -0.804527,0.89142 -0.804527,0.92768 0,0.0363 0.629076,0.0659 1.397946,0.0659 1.179158,0 1.43796,0.0262 1.653646,0.16754 0.298905,0.19585 0.333181,0.49305 0.07293,0.63233 -0.100529,0.0538 -0.587442,0.0978 -1.082032,0.0978 -1.787233,0 -2.153191,0.22156 -2.216498,1.34189 -0.02865,0.50699 0.005,0.71865 0.167876,1.05504 0.271608,0.56106 0.692729,0.73065 1.907503,0.76816 0.919679,0.0284 1.311431,0.13898 1.311431,0.3702 0,0.27759 -0.309237,0.37359 -1.400267,0.43471 -0.607106,0.034 -1.213735,0.11504 -1.348066,0.18009 -0.450107,0.21793 -0.598154,0.61655 -0.637506,1.7165 -0.03128,0.87429 -0.01072,1.04927 0.163433,1.39062 0.291524,0.57144 0.450178,0.62545 1.86329,0.63431 1.016407,0.006 1.28529,0.0378 1.49407,0.17459 0.1725,0.11303 0.245118,0.23343 0.225189,0.37338 -0.0485,0.34058 -0.60217,0.45209 -2.344518,0.47221 -1.7306,0.02 -2.085547,-0.0699 -2.27874,-0.57712 -0.06211,-0.16306 -0.08625,-1.43341 -0.06681,-3.51538 0.03118,-3.33812 -0.03865,-4.72659 -0.237474,-4.72236 -0.204401,0.004 -3.511619,1.95651 -3.53727,2.08796 -0.01421,0.0728 0.187166,0.24924 0.456387,0.39986 0.685073,0.38326 1.450338,1.20026 1.811669,1.93415 0.250724,0.50924 0.315044,0.76534 0.342431,1.36342 0.02958,0.64597 0.0028,0.79969 -0.218371,1.25167 -0.42795,0.8747 -1.443162,1.57908 -2.455852,1.70393 -0.414134,0.0511 -1.453978,-0.0672 -2.563357,-0.29153 l -0.290169,-0.0587 0.0067,1.82743 c 0.0049,1.32915 -0.02788,1.90932 -0.120084,2.12775 -0.143851,0.34079 -0.288708,0.42699 -0.509685,0.30333 z m 4.137734,-4.88139 c 0.889542,-0.45424 1.319114,-1.21307 1.255173,-2.21725 -0.110684,-1.73827 -1.598309,-2.78874 -3.251021,-2.29567 -1.364284,0.40703 -1.974463,1.85383 -1.367263,3.24192 0.246057,0.5625 0.944655,1.25198 1.437288,1.41852 0.470622,0.1591 1.476216,0.0821 1.925823,-0.14752 z"
         id="path1475" />
      <path
         style="fill:#7fff2a;fill-opacity:1;stroke:none;stroke-width:0.0944941"
         d="m 63.336247,131.81816 c -1.775267,-0.41676 -3.077811,-2.25567 -3.081063,-4.34978 -0.0034,-2.21774 1.413317,-3.81087 3.589653,-4.03653 1.408686,-0.14606 2.545384,0.25571 3.431582,1.2129 0.84614,0.91394 1.192115,1.82042 1.196316,3.13445 0.0052,1.62664 -0.817903,2.99628 -2.20078,3.66207 -0.898959,0.43281 -2.061673,0.58208 -2.935708,0.37689 z m 2.272681,-0.75942 c 1.484521,-0.55543 2.271008,-1.83842 2.186866,-3.56741 -0.04817,-0.98991 -0.329015,-1.6719 -0.971209,-2.35845 -0.655468,-0.70075 -1.20351,-0.91133 -2.365537,-0.90892 -0.869717,0.002 -0.994785,0.0262 -1.571111,0.30637 -1.171861,0.56969 -1.791774,1.55648 -1.860127,2.961 -0.136739,2.80981 2.051516,4.51385 4.581118,3.56741 z"
         id="path1477" />
      <path
         style="fill:#7fff2a;fill-opacity:1;stroke:none;stroke-width:0.0944941"
         d="m 75.845584,146.19571 c -1.007947,-0.19014 -1.156089,-0.38123 -1.336858,-1.72446 -0.07756,-0.57635 -0.07403,-1.16468 0.01402,-2.33607 0.06473,-0.86114 0.144351,-2.40374 0.176924,-3.428 0.05442,-1.7112 0.07446,-1.87343 0.246928,-1.99944 0.298407,-0.21803 1.129988,-0.34343 2.261282,-0.341 1.150941,0.002 1.704383,0.0946 1.931289,0.32152 0.282417,0.28242 -0.04672,0.44203 -1.085609,0.52645 -0.51277,0.0417 -1.052015,0.12255 -1.198322,0.17973 -0.146304,0.0572 -0.390808,0.10398 -0.54334,0.10398 -0.179136,0 -0.277331,0.0485 -0.277331,0.13687 0,0.0753 -0.105349,0.25055 -0.234111,0.38948 -0.38385,0.41419 -0.400873,0.80559 -0.06473,1.48839 0.353912,0.7189 0.569777,0.82008 1.74962,0.82008 0.496039,0 0.950349,0.0531 1.143238,0.13374 0.318403,0.13304 0.596551,0.48689 0.476893,0.60668 -0.03449,0.0345 -0.630171,0.084 -1.323739,0.11002 -1.420829,0.0532 -1.696625,0.16383 -1.907201,0.76481 -0.118603,0.33848 -0.161481,2.15823 -0.06465,2.7437 l 0.05672,0.34296 1.38327,0.0442 c 1.585196,0.0507 2.21928,0.22075 2.167816,0.58139 -0.0548,0.38406 -0.641072,0.56035 -1.959414,0.58918 -0.653113,0.0143 -1.378828,-0.0101 -1.612701,-0.0542 z"
         id="path1479" />
      <path
         style="fill:#7fff2a;fill-opacity:1;stroke:none;stroke-width:0.0944941"
         d="m 80.753702,149.80995 c -0.0953,-0.18778 -0.138046,-0.67104 -0.14868,-1.68095 -0.0082,-0.77958 -0.04688,-2.16155 -0.08593,-3.07106 -0.103632,-2.41357 0.148762,-3.57605 0.966147,-4.4499 0.612233,-0.65453 1.200894,-0.88618 2.250594,-0.88567 0.701678,2.6e-4 0.929457,0.0393 1.302131,0.22289 0.713229,0.3513 1.34647,0.98315 1.695164,1.69144 0.272878,0.5543 0.309827,0.72044 0.308584,1.38763 -0.0011,0.57363 -0.05094,0.86585 -0.205058,1.20172 -0.274007,0.59712 -0.961802,1.26472 -1.617596,1.57012 -0.460441,0.21442 -0.654442,0.24883 -1.341485,0.23796 -0.441759,-0.007 -1.130104,-0.0954 -1.529654,-0.19657 l -0.726456,-0.18387 -0.04925,0.33996 c -0.02709,0.18698 -0.07695,1.06943 -0.110808,1.96101 -0.0347,0.91389 -0.109561,1.71735 -0.171603,1.8418 -0.157388,0.31568 -0.379886,0.32128 -0.536102,0.0135 z m 4.11675,-4.69071 c 1.216351,-0.56643 1.680922,-1.9981 1.08539,-3.34487 -0.406898,-0.92019 -1.058913,-1.34173 -2.078265,-1.34364 -1.035963,-0.002 -1.87007,0.52297 -2.247559,1.41441 -0.229682,0.5424 -0.183946,1.48907 0.100838,2.08727 0.317492,0.66691 0.49806,0.87481 1.012793,1.1661 0.577803,0.32698 1.450875,0.33549 2.126803,0.0207 z"
         id="path1481" />
    </g>
  </g>
</svg>
