<?xml version="1.0" encoding="UTF-8" standalone="no" ?>
<!DOCTYPE svg PUBLIC "-//W3C//DTD SVG 1.1//EN" "http://www.w3.org/Graphics/SVG/1.1/DTD/svg11.dtd">
<svg xmlns="http://www.w3.org/2000/svg" xmlns:xlink="http://www.w3.org/1999/xlink" version="1.1" width="1080" height="1080" viewBox="0 0 1080 1080" xml:space="preserve">
<desc>Created with Fabric.js 4.2.0</desc>
<defs>
</defs>
<g transform="matrix(1 0 0 1 540 540)" id="a58938f0-63a2-4dd7-9105-607e1d326a0a"  >
<rect style="stroke: none; stroke-width: 1; stroke-dasharray: none; stroke-linecap: butt; stroke-dashoffset: 0; stroke-linejoin: miter; stroke-miterlimit: 4; fill: rgb(239,222,222); fill-opacity: 0; fill-rule: nonzero; opacity: 1;" vector-effect="non-scaling-stroke"  x="-540" y="-540" rx="0" ry="0" width="1080" height="1080" />
</g>
<g transform="matrix(1 0 0 1 540 540)" id="182e6458-2b61-4977-9a7a-ae423fbbcc2f"  >
</g>
<g transform="matrix(14.91 0 0 14.91 540 540)" id="78b393bc-2638-4cf8-a68a-37c3caba0cad"  >
<circle style="stroke: rgb(0,0,0); stroke-width: 0; stroke-dasharray: none; stroke-linecap: butt; stroke-dashoffset: 0; stroke-linejoin: miter; stroke-miterlimit: 4; fill: rgb(0,0,0); fill-rule: nonzero; opacity: 1;" vector-effect="non-scaling-stroke"  cx="0" cy="0" r="35" />
</g>
<g transform="matrix(0.28 0 0 0.28 540 513.37)"  >
<g style="" vector-effect="non-scaling-stroke"   >
		<g transform="matrix(75.53 0 0 71.14 -0.08 -0.01)"  >
<path style="stroke: none; stroke-width: 0.17; stroke-dasharray: none; stroke-linecap: butt; stroke-dashoffset: 0; stroke-linejoin: miter; stroke-miterlimit: 4; fill: rgb(41,44,40); fill-rule: nonzero; opacity: 1;" vector-effect="non-scaling-stroke"  transform=" translate(-66.12, -130.46)" d="M 59.830717 110.45802 C 59.255137 110.64257 59.479337 111.5785 59.539617 112.00057000000001 C 59.764987 113.57878000000001 59.939787 115.16438000000001 60.167167 116.74191 C 60.230967 117.18441 60.374817 118.27713 61.088437 117.98447 C 61.653347 117.75279 61.439667 116.85367000000001 61.375357 116.40324 C 61.150107 114.82531 60.982467 113.23799 60.747667 111.66190999999999 C 60.681367 111.21649 60.508517 110.24069999999999 59.830717 110.45801999999999 M 68.369251 110.65387999999999 C 67.93203100000001 110.97398999999999 67.903581 111.85428999999999 67.806551 112.33923999999999 C 67.517501 113.78126999999999 67.073681 115.27609 66.944481 116.74112999999998 C 66.901681 117.22551999999999 67.182221 118.01957999999999 67.813501 117.58059999999999 C 68.263251 117.26769999999999 68.284751 116.38261999999999 68.38229100000001 115.89523999999999 C 68.671001 114.45182999999999 69.08113100000001 112.96046999999999 69.21050100000001 111.49335999999998 C 69.25080100000001 111.03710999999998 68.984441 110.20349999999998 68.369251 110.65387999999999 M 60.288157000000005 110.64587999999999 C 60.77244700000001 112.65673999999999 61.572557 115.90682999999999 61.134817000000005 117.92720999999999 L 60.796147000000005 117.92720999999999 L 59.61082700000001 110.81521 L 60.288157000000005 110.64587999999999 M 69.093491 110.81521 C 68.696061 112.92421999999999 68.613601 115.70503 67.569491 117.58854 L 67.400151 117.58854 C 66.687771 115.82731 68.05751099999999 112.49528 68.416151 110.64587999999999 L 69.093491 110.81521 M 52.262467 113.87119 C 51.851017 114.19774 52.203167 114.86136 52.375867 115.21788 C 52.991467 116.48819999999999 53.751027 117.73724999999999 54.485877 118.94242999999999 C 54.707507 119.30590999999998 55.238377 120.15083999999999 55.780837000000005 119.77524999999999 C 56.25465700000001 119.44715999999998 55.765437000000006 118.62047999999999 55.583277 118.26587999999998 C 54.935567000000006 117.00489999999998 54.203487 115.75492999999999 53.466617 114.54380999999998 C 53.247397 114.18348999999998 52.771497 113.46715999999998 52.262467 113.87118999999998 M 55.546827 119.78987999999998 L 55.377487 119.78987999999998 C 54.157067000000005 118.18926999999998 52.729627 115.96852999999999 52.160157000000005 114.03253999999998 L 52.32948700000001 113.86320999999998 C 53.54975700000001 114.48707999999998 56.01482700000001 118.46482999999998 55.54682700000001 119.78987999999998 M 53.00682700000001 124.86987999999998 C 51.716637000000006 126.16005999999999 49.66341700000001 127.86012999999998 49.45081700000001 129.78053999999997 L 49.281487000000006 129.78053999999997 C 48.724317000000006 127.83151999999997 47.86165700000001 126.02287999999997 47.418687000000006 124.02320999999998 C 47.327087000000006 123.60945999999998 47.025177000000006 122.38620999999998 46.334877000000006 122.85250999999998 C 45.86230700000001 123.17172999999998 46.14541700000001 124.09242999999998 46.23414700000001 124.53120999999999 C 46.56585700000001 126.17155999999999 47.117577000000004 127.73041999999998 47.759457000000005 129.27254 C 50.330277 135.44915 55.752307 139.09387999999998 62.320147000000006 139.09387999999998 L 62.320147000000006 139.26321 C 56.912187 139.26321 52.807007000000006 137.43221 49.433707000000005 132.99787999999998 C 48.174027 131.34196999999998 47.214577000000006 129.52908 46.50225700000001 127.57920999999997 C 46.33284700000001 127.11546999999997 46.106477000000005 125.93535999999997 45.40459700000001 126.04187999999998 C 44.52196700000001 126.17583999999998 45.17813700000001 127.63440999999997 45.33049700000001 128.08720999999997 C 45.986337000000006 130.03589999999997 46.969077000000006 131.83844999999997 48.16864700000001 133.50587999999996 C 51.44578700000001 138.06093999999996 56.34573700000001 140.89337999999995 61.98146700000001 140.44853999999995 C 60.47385700000001 142.46614999999994 60.80459700000001 145.67975999999996 61.08645700000001 148.06853999999996 C 61.15895700000001 148.68271999999996 60.85334700000001 150.26546999999997 61.66462700000001 150.48120999999995 C 62.92058700000001 150.81546999999995 62.48946700000001 146.75688999999994 62.48946700000001 146.03653999999995 C 64.02142700000002 146.60753999999994 65.712731 146.83172999999994 67.04369100000001 145.64029999999994 C 69.07704100000001 143.81996999999993 68.09474100000001 140.24821999999995 65.53747100000001 139.60187999999994 L 65.53747100000001 139.43253999999993 L 68.58547100000001 137.73920999999993 L 68.58547100000001 143.66587999999993 C 68.58547100000001 144.38587999999993 68.37651100000001 145.53988999999993 68.88045100000001 146.13238999999993 C 69.50546100000001 146.86711999999994 72.83218000000001 146.82868999999994 73.61162200000001 146.32135999999994 C 75.12394 145.33719999999994 72.56548000000001 144.85137999999995 71.972142 144.85120999999995 L 70.278801 144.85120999999995 L 70.278801 141.63387999999995 C 70.880611 141.63387999999995 74.380742 141.93867999999995 73.48818 140.50170999999995 C 73.024382 139.75494999999995 71.039781 140.10987999999995 70.278801 140.10987999999995 L 70.278801 137.56987999999996 C 71.00406100000001 137.56987999999996 73.462442 137.96137999999996 73.707462 137.04002999999994 C 74.02700200000001 135.83928999999995 71.07619100000001 136.21520999999996 70.448131 136.21520999999996 C 70.859611 135.80372999999994 73.28904200000001 133.78611999999995 72.25374000000001 133.18176999999994 C 71.60096 132.80076999999994 70.71991100000001 133.86045999999993 70.278801 134.21622999999994 C 68.654891 135.52618999999993 66.834901 136.59400999999994 64.860131 137.28285999999994 C 58.447416999999994 139.51940999999994 52.868387 135.40748999999994 49.620137 130.11920999999995 C 51.265567 130.32833999999994 52.755717 127.28219999999995 53.853467 126.23121999999995 C 56.467007 123.72909999999995 60.143947000000004 121.41902999999995 63.844127 121.15969999999996 C 67.736431 120.88689999999995 71.274141 122.22449999999996 73.997532 125.03986999999996 C 75.327982 126.41537999999997 76.147052 129.14807999999996 78.06814200000001 129.61120999999997 C 77.00404 130.06908999999996 75.73100000000001 130.08279999999996 74.70654200000001 130.60248999999996 C 74.22545200000002 130.84649999999996 74.05308200000002 131.47133999999997 74.56616200000002 131.80712999999997 C 75.67800200000002 132.53525999999997 79.21182200000003 130.99787999999998 80.43880000000001 130.69036999999997 C 80.88060200000001 130.57979999999998 81.97262200000002 130.47193 81.88390200000002 129.80019 C 81.72574200000003 128.60114 78.61492200000002 128.6814 77.93504000000001 127.71043999999999 C 76.58630000000001 125.78482 75.96671200000002 123.69463999999999 74.17279200000002 122.00636999999999 C 69.04859100000002 117.18388999999999 61.57128700000001 117.38252999999999 55.71613700000002 120.80783999999998 C 53.961117000000016 121.83453999999999 52.219467000000016 123.04537999999998 50.820627000000016 124.53186999999998 C 50.39557700000002 124.98352999999999 49.59116700000001 125.71328999999999 49.57793700000001 126.38394999999998 C 49.566437000000015 126.96505999999998 50.203457000000014 127.09296999999998 50.63626700000001 126.89389999999999 C 51.54699700000001 126.47503999999999 52.18616700000001 125.44794999999999 53.00680700000001 124.86988 M 81.79347200000001 129.78054 L 81.79347200000001 129.94988 C 80.189722 130.75489000000002 78.12672 131.05969000000002 76.37480000000001 131.43832 C 75.94994000000001 131.53012 74.99660200000001 131.91905 74.63947200000001 131.52892 C 74.28963200000001 131.1469 74.91024200000001 130.81586 75.192862 130.70884 C 76.18430000000001 130.33343000000002 77.35846000000001 130.09111000000001 78.4068 129.94989 C 78.01581200000001 129.27323 77.22248 129.19178000000002 76.773072 128.55898000000002 C 75.596042 126.90201000000002 74.74650199999999 125.26487000000002 73.157472 123.90472000000003 C 68.458471 119.88261000000003 62.302687 120.21093000000002 57.240137 123.31388000000003 C 55.187326999999996 124.57208000000003 53.312056999999996 126.19103000000003 51.823957 128.08722000000003 C 51.499157 128.50107000000003 50.714977 130.05589000000003 50.032887 129.82255000000004 C 49.112997 129.50810000000004 51.149247 127.22784000000003 51.417607000000004 126.90189000000004 C 53.49381700000001 124.38007000000003 56.164577 122.77745000000004 58.93346700000001 121.14455000000004 C 56.67798700000001 121.14255000000004 53.900817 123.64869000000004 52.32946700000001 125.06797000000003 C 51.92989700000001 125.42887000000003 50.70574700000001 127.07854000000003 50.06424700000001 126.70277000000003 C 49.61596700000001 126.44017000000002 50.11934700000001 125.79138000000003 50.30752700000001 125.54722000000002 C 51.076637000000005 124.54964000000002 52.034817000000004 123.73439000000002 53.00680700000001 122.94203000000003 C 56.20362700000001 120.33597000000003 60.68445700000001 118.43652000000003 64.86013100000001 118.43652000000003 C 69.04521100000001 118.43652000000003 72.93327200000002 120.56667000000003 75.44296200000001 123.85389000000004 C 76.3704 125.06882000000003 76.868412 127.15650000000004 77.969582 128.13819000000004 C 78.954932 129.01652000000004 80.645562 129.12794000000002 81.79347200000001 129.78055000000003 M 46.74146700000001 122.83789000000003 C 47.80987700000001 125.02048000000003 48.017697000000005 127.56009000000003 49.15604700000001 129.78055000000003 C 52.06119700000001 135.44729000000004 58.226167000000004 139.68706000000003 64.69080100000001 137.61290000000002 C 67.609431 136.67648000000003 69.495461 134.39387000000002 72.14147200000001 133.16722000000001 C 72.33740200000001 134.47701 70.798991 135.40581 70.10947100000001 136.38455000000002 C 70.66827100000002 136.38455000000002 73.46108200000002 136.05486000000002 73.46108200000002 136.89255000000003 C 73.46108200000002 137.41596000000004 72.65438000000002 137.39327000000003 72.31080000000001 137.39971000000003 C 71.35847100000001 137.41771000000003 70.06121100000001 137.13927000000004 69.95012100000001 138.41740000000001 C 69.836161 139.72669000000002 70.29861100000001 140.38065 71.63347200000001 140.44195000000002 C 72.01887200000002 140.45955 73.22994200000001 140.26144000000002 73.34018000000002 140.81601 C 73.43928000000002 141.31486 72.59223200000002 141.28912 72.31064200000002 141.29437000000001 C 71.27109100000001 141.31417000000002 70.15553100000001 141.17550000000003 69.97214100000002 142.48123 C 69.85225100000002 143.33501 69.74049100000002 144.85427 70.79425100000002 145.13604 C 71.33883100000001 145.28167000000002 73.72710200000002 144.81820000000002 73.72710200000002 145.69789 C 73.72710200000002 146.16084 73.14968000000002 146.18794 72.81796200000002 146.20267 C 72.05968200000002 146.23607 69.41164100000002 146.59637 69.02624100000003 145.81337000000002 C 68.70942100000002 145.16923000000003 68.92413100000003 144.03080000000003 68.92413100000003 143.32722 C 68.92413100000003 141.37684000000002 69.11176100000003 139.32316 68.75480100000003 137.40055 L 65.19880100000003 139.43255000000002 L 65.19880100000003 139.60189000000003 C 67.74303100000003 140.66818000000004 69.25789100000003 144.25771000000003 66.21412100000003 145.88077 C 64.96885100000003 146.54489 63.60807700000004 146.05654 62.320127000000035 145.86717000000002 C 62.320127000000035 147.03794000000002 62.41632700000004 148.25409000000002 62.31012700000004 149.41995000000003 C 62.278427000000036 149.76912000000002 62.05088700000004 150.42190000000002 61.572367000000035 150.08594000000002 C 61.03113700000004 149.70579000000004 61.30412700000004 148.13776000000001 61.30412700000004 147.56050000000002 C 61.30412700000004 144.91450000000003 61.248827000000034 142.76143000000002 62.15078700000004 140.27917000000002 C 55.77418700000004 140.27917000000002 50.68201700000004 137.39898000000002 47.35176700000004 131.81250000000003 C 46.375248000000035 130.17437000000004 45.306058000000036 128.16337000000001 45.217458000000036 126.22450000000003 C 46.05187800000004 126.49464000000003 46.13454800000004 127.33110000000003 46.411808000000036 128.08717000000004 C 46.893248000000035 129.40001000000004 47.52405800000004 130.63344000000004 48.274608000000036 131.81250000000006 C 50.74399800000003 135.69176000000004 54.65843800000003 138.84272000000004 59.27212800000004 139.50379000000007 C 60.98693800000004 139.74933000000007 63.67902800000004 139.63079000000008 65.02947200000004 138.41649000000007 C 63.50444800000004 138.61344000000005 62.01092800000004 139.04371000000006 60.45746800000004 138.89572000000007 C 55.05519800000004 138.38128000000006 50.77293800000004 134.70980000000006 48.392988000000045 129.94984000000008 C 47.682768000000046 128.5294700000001 45.432118000000045 124.20168000000008 46.741458000000044 122.83784000000009 M 63.84412800000004 123.08217000000009 C 57.68984800000004 123.9780900000001 59.26045800000004 133.1683600000001 65.36813200000005 132.0954600000001 C 70.92972200000004 131.1185800000001 69.38032200000005 122.27623000000008 63.84412800000005 123.08217000000009 M 54.86945800000005 123.3458400000001 L 54.70012800000005 123.5151700000001 L 54.86945800000005 123.3458400000001 M 63.50546800000005 123.4015400000001 C 69.12412200000006 122.41634000000009 70.67132200000005 130.9127100000001 65.02947200000006 131.9031400000001 C 59.688368000000054 132.8407400000001 58.15735800000006 124.3393200000001 63.50546800000006 123.4015400000001 M 54.361458000000056 123.6845400000001 L 53.85345800000005 124.1925400000001 L 54.361458000000056 123.6845400000001 M 53.68412800000006 124.1925400000001 L 53.00679800000006 124.8698800000001 L 53.68412800000006 124.1925400000001 M 63.844128000000055 124.2723400000001 C 59.471438000000056 125.0463800000001 60.47896800000005 131.9682900000001 64.86013200000005 131.2252600000001 C 69.42147200000005 130.45157000000012 68.35822200000005 123.4732400000001 63.84412800000005 124.2723400000001 M 63.674798000000045 124.5869700000001 C 67.75472200000004 123.85057000000009 69.31191200000005 130.00385000000009 65.19880200000004 130.89980000000008 C 61.061238000000046 131.80082000000007 59.50953800000004 125.33875000000009 63.674798000000045 124.58697000000008 M 49.620127000000046 129.94984000000008 L 49.450797000000044 130.11917000000008 L 49.620127000000046 129.94984000000008 M 76.03613100000004 144.85117000000008 C 76.03613100000004 144.04616000000007 75.74861100000004 142.54875000000007 76.21021100000004 141.8570200000001 C 76.77866000000004 141.0049300000001 78.24119200000004 141.7511900000001 79.03029100000005 141.3624000000001 C 79.57469200000004 141.09400000000008 79.42907100000005 140.32387000000008 78.88974200000006 140.1636900000001 C 78.04934000000006 139.9140900000001 76.91006000000006 140.1097900000001 76.03613100000005 140.1097900000001 L 76.03613100000005 137.5697900000001 C 76.61221100000006 137.5697900000001 80.34601100000006 137.8840700000001 79.41484200000005 136.4713200000001 C 78.91429200000005 135.71186000000012 74.82913100000005 135.9511300000001 74.46845100000004 136.7481800000001 C 74.17194000000005 137.40384000000012 74.34280000000004 138.3905500000001 74.34280000000004 139.0937900000001 C 74.34280000000004 140.9991300000001 73.75301200000004 144.2400000000001 74.61423100000005 145.9826100000001 C 74.95748000000005 146.67687000000012 79.11309200000005 146.6861900000001 79.58672000000004 146.0801100000001 C 80.76375100000004 144.5733800000001 76.59832000000004 144.8510900000001 76.03613100000004 144.8510900000001 M 79.25347200000004 141.1257600000001 C 78.39884200000004 141.3293000000001 76.98034200000005 140.98809000000008 76.25932000000005 141.4691700000001 C 75.47598200000004 141.9919000000001 75.86680000000004 144.1874700000001 75.86680000000004 145.02042000000012 C 76.33721100000004 145.02042000000012 80.18565200000003 144.7833600000001 79.40824000000003 145.91146000000012 C 78.98761100000003 146.52173000000013 75.10937200000004 146.4751700000001 74.78358000000003 145.81326000000013 C 73.99753200000004 144.21560000000014 74.68147200000003 140.71023000000014 74.68147200000003 138.92444000000012 C 74.68147200000003 138.3060400000001 74.50401100000003 137.34524000000013 74.78358000000003 136.77696000000012 C 75.08973200000003 136.15466000000012 79.13104200000004 136.0684700000001 79.26684200000003 136.7518600000001 C 79.37590000000003 137.3006700000001 78.36125200000002 137.2276800000001 78.06813100000002 137.2310700000001 C 76.66030200000002 137.2476700000001 74.61594000000002 138.1288800000001 76.01209100000003 139.8865600000001 C 76.86824000000003 140.96453000000008 78.76342200000002 139.5113100000001 79.25347200000003 141.1257400000001 M 81.79347200000004 145.8670700000001 C 82.40205100000004 146.1860900000001 82.96356000000004 146.3578000000001 83.65613100000003 146.3725300000001 C 88.26539200000003 146.4705300000001 88.58814200000003 139.6095300000001 83.99480000000003 139.3272500000001 C 79.72117100000003 139.0644400000001 80.26947200000002 143.88773000000012 80.26947200000002 146.71374000000012 C 80.26947200000002 147.49978000000013 79.85545200000003 150.00422000000012 80.80185100000003 150.3269700000001 C 82.27674200000003 150.8300600000001 81.79347200000002 146.6487100000001 81.79347200000002 145.8670700000001 M 81.62413100000002 145.6977400000001 L 81.45158000000002 149.2528900000001 C 81.43978000000003 149.5211100000001 81.41718000000002 150.2015000000001 80.97559200000002 150.1137800000001 C 80.28132000000002 149.9757700000001 80.63133200000001 147.4295100000001 80.57935200000001 146.88307000000012 C 80.33263100000002 144.29024000000013 79.81819100000001 139.9007800000001 83.48680000000002 139.6176500000001 C 86.51076000000002 139.3843100000001 88.51515100000002 143.34637000000012 85.99547100000002 145.39480000000012 C 84.61050200000003 146.52070000000012 83.16524200000002 146.10973000000013 81.62413100000002 145.69774000000012 M 83.14813100000002 140.55898000000013 C 80.20343200000002 141.48151000000013 81.56267100000002 146.10939000000013 84.50280000000002 145.22225000000014 C 87.44598000000002 144.33427000000015 86.20629100000002 139.60089000000013 83.14813100000002 140.55898000000013 M 63.674967000000024 140.74338000000014 C 60.760217000000026 141.86285000000015 62.670987000000025 146.33392000000015 65.53730100000003 145.23343000000014 C 68.49420100000003 144.09805000000014 66.64372100000003 139.60326000000015 63.67496700000003 140.74338000000014 M 83.48680000000003 140.68698000000015 C 86.08522000000004 140.15782000000016 87.02163100000003 144.25856000000016 84.50263100000004 144.94690000000014 C 81.59924200000003 145.74040000000014 80.54209100000004 141.28659000000013 83.48680000000003 140.68698000000015 M 64.18280100000003 140.85395000000014 C 67.01338100000002 140.21810000000013 67.80332100000003 144.59943000000013 65.02947100000003 145.13080000000014 C 62.34451700000003 145.64506000000014 61.48660700000003 141.45965000000012 64.18280100000003 140.85395000000014 z" stroke-linecap="round" />
</g>
		<g transform="matrix(75.53 0 0 71.14 -25.15 -382.98)"  >
<path style="stroke: none; stroke-width: 0.09; stroke-dasharray: none; stroke-linecap: butt; stroke-dashoffset: 0; stroke-linejoin: miter; stroke-miterlimit: 4; fill: rgb(127,255,42); fill-rule: nonzero; opacity: 1;" vector-effect="non-scaling-stroke"  transform=" translate(-65.78, -125.08)" d="M 74.730553 131.52639 C 74.668193 131.46399 74.61716 131.36081 74.61716 131.29701 C 74.61716 130.93912 75.89681 130.44119 77.579684 130.14425 L 78.504543 129.98107 L 78.302081 129.72368 C 78.190726 129.58211 77.914136 129.35759 77.68743500000001 129.22473 C 77.116195 128.88996 76.77846500000001 128.48999 75.650287 126.81212 C 73.458494 123.55241 70.89276500000001 121.76066999999999 67.45543900000001 121.08937999999999 C 66.31896300000001 120.86742999999998 64.01109000000001 120.87186 62.80540300000001 121.09837999999999 C 58.57258500000001 121.89335999999999 54.075606000000015 124.83214 51.48072600000001 128.49907 C 50.74992800000001 129.53179 50.47396800000001 129.7831 50.12504000000001 129.73363999999998 C 49.42303200000001 129.63413999999997 50.32062600000001 128.10380999999998 52.26931600000001 126.07782999999998 C 53.70869500000001 124.58135999999998 55.43596800000001 123.28337999999998 58.00983000000001 121.76404999999998 C 58.516554000000006 121.46492999999998 58.931149000000005 121.19040999999999 58.931149000000005 121.15399999999998 C 58.931149000000005 121.01466999999998 57.761383 121.25634999999998 57.124984000000005 121.52715999999998 C 55.736141 122.11816999999998 53.659136000000004 123.68054999999998 51.843186 125.50026999999999 C 50.796479000000005 126.54914999999998 50.347105000000006 126.84010999999998 50.095870000000005 126.63159999999999 C 49.884063000000005 126.45585999999999 49.922068 126.24018 50.25283400000001 125.74081 C 50.90173000000001 124.76115 52.913751000000005 122.97458999999999 54.72616300000001 121.76872999999999 C 56.71323600000001 120.44667 59.617422000000005 119.24046999999999 61.907711000000006 118.78602 C 63.327336 118.50433 65.47276000000001 118.43615 66.680784 118.63434 C 68.105237 118.86802999999999 69.184835 119.21858999999999 70.506669 119.87665 C 71.903953 120.57227999999999 73.109964 121.43638 74.155206 122.49082 C 75.21491700000001 123.55985 75.66566200000001 124.21262 76.464703 125.83544 C 77.585134 128.11098 77.97508 128.49037 79.805827 129.08613 C 81.1245 129.51524 81.71587299999999 129.76228 81.68024899999999 129.86916 C 81.63013899999999 130.01949 80.366553 130.48517999999999 79.315845 130.74053999999998 C 77.64844099999999 131.14577999999997 75.31945999999999 131.63989999999998 75.076776 131.63989999999998 C 74.94872 131.63989999999998 74.79292 131.5889 74.730553 131.52650999999997 z" stroke-linecap="round" />
</g>
		<g transform="matrix(75.53 0 0 71.14 -924.12 -968.45)"  >
<path style="stroke: none; stroke-width: 0.09; stroke-dasharray: none; stroke-linecap: butt; stroke-dashoffset: 0; stroke-linejoin: miter; stroke-miterlimit: 4; fill: rgb(127,255,42); fill-rule: nonzero; opacity: 1;" vector-effect="non-scaling-stroke"  transform=" translate(-53.88, -116.85)" d="M 54.808586 118.90514 C 53.744074999999995 117.38798 52.910661 115.88823000000001 52.445271999999996 114.65232 C 52.183040999999996 113.95593000000001 52.184861 113.96940000000001 52.352982 113.96940000000001 C 52.543572 113.96940000000001 53.527491 115.05375000000001 54.032608999999994 115.82047 C 54.593168999999996 116.67135 55.18371299999999 117.84795 55.377160999999994 118.49935 C 55.535309999999996 119.03190000000001 55.581683999999996 119.73469 55.45850099999999 119.73197 C 55.41951099999999 119.73117 55.12705799999999 119.35903 54.80858999999999 118.90514 z" stroke-linecap="round" />
</g>
		<g transform="matrix(75.53 0 0 71.14 149.98 -1161.05)"  >
<path style="stroke: none; stroke-width: 0.09; stroke-dasharray: none; stroke-linecap: butt; stroke-dashoffset: 0; stroke-linejoin: miter; stroke-miterlimit: 4; fill: rgb(127,255,42); fill-rule: nonzero; opacity: 1;" vector-effect="non-scaling-stroke"  transform=" translate(-68.1, -114.14)" d="M 67.346753 117.20824 C 67.112936 116.36626 67.30226300000001 115.02799 68.03890100000001 112.31575000000001 C 68.37449800000002 111.08011 68.48207800000002 110.79943000000002 68.627654 110.77968000000001 C 69.03364400000001 110.72458000000002 69.039962 110.82318000000001 68.75346900000001 112.74233000000001 C 68.60228900000001 113.75503 68.409558 114.90253000000001 68.32517700000001 115.29232 C 68.16140000000001 116.04887000000001 67.66696800000001 117.42834 67.52902200000001 117.5136 C 67.48327200000001 117.5419 67.40124700000001 117.40446 67.346753 117.20824 z" stroke-linecap="round" />
</g>
		<g transform="matrix(75.53 0 0 71.14 -424.49 -1149.27)"  >
<path style="stroke: none; stroke-width: 0.09; stroke-dasharray: none; stroke-linecap: butt; stroke-dashoffset: 0; stroke-linejoin: miter; stroke-miterlimit: 4; fill: rgb(127,255,42); fill-rule: nonzero; opacity: 1;" vector-effect="non-scaling-stroke"  transform=" translate(-60.5, -114.31)" d="M 60.821028 117.79166 C 60.821028 117.76306 60.564339 116.20384 60.250612 114.32672 C 59.655747 110.76749 59.655488 110.76189 60.085057 110.75805 C 60.267673 110.75605 60.317462 110.90908999999999 60.670099 112.55199 C 61.130027 114.69476 61.334206 116.9043 61.139446 117.63104 C 61.091196 117.81109 60.821028 117.94736999999999 60.821028 117.79166 z" stroke-linecap="round" />
</g>
		<g transform="matrix(75.53 0 0 71.14 -500.05 429.93)"  >
<path style="stroke: none; stroke-width: 0.09; stroke-dasharray: none; stroke-linecap: butt; stroke-dashoffset: 0; stroke-linejoin: miter; stroke-miterlimit: 4; fill: rgb(127,255,42); fill-rule: nonzero; opacity: 1;" vector-effect="non-scaling-stroke"  transform=" translate(-59.5, -136.51)" d="M 61.649232 150.05556 C 61.314586999999996 149.86828000000003 61.285106999999996 149.44660000000002 61.381772 146.22988 C 61.479242 142.9862 61.585859 142.10591 62.041699 140.78099 L 62.228259 140.23874 L 61.77729 140.23874 C 61.036787000000004 140.23874 59.320531 140.04531 58.409647 139.85919 C 54.105001 138.97961 50.442278 136.44091 47.913375 132.58404000000002 C 46.426562000000004 130.31648 45.247761000000004 127.57177000000001 45.342400000000005 126.59779000000002 L 45.37125 126.30087000000002 L 45.65988900000001 126.58435000000001 C 45.86363200000001 126.78445000000002 46.05225000000001 127.16910000000001 46.301157 127.89206000000001 C 47.035998000000006 130.02647000000002 48.532412 132.55028000000001 50.12001600000001 134.33286 C 52.528817000000004 137.03749000000002 55.35681300000001 138.74215 58.60041600000001 139.44467 C 59.62298100000001 139.66615000000002 61.91469000000001 139.67008 62.89989600000001 139.45167 C 63.77824600000001 139.25729 65.21940200000002 138.55763000000002 65.06319800000001 138.40143 C 65.03925800000002 138.37743 64.38327400000001 138.46553 63.60543900000001 138.59706 C 61.16024400000001 139.01054 59.45037500000001 138.88769 57.35418900000001 138.14794 C 53.18530100000001 136.6767 50.03933400000001 133.50733 47.741062000000014 128.46328 C 46.476512000000014 125.68796 46.115766000000015 124.01232999999999 46.59470200000001 123.13859 L 46.722189000000014 122.90599999999999 L 46.88277500000002 123.28032999999999 C 47.160466000000014 123.92761999999999 47.40168400000002 124.65541999999999 47.74282400000001 125.87526 C 48.54548800000001 128.7454 49.07155700000001 129.96992 50.230432000000015 131.66562 C 52.422362000000014 134.87292 55.323785000000015 137.00508 58.694910000000014 137.88589 C 59.447885000000014 138.08263 59.75112900000001 138.10759 61.34074300000002 138.10366 C 62.97430400000002 138.09966 63.21940400000002 138.07685999999998 64.06003000000001 137.85066 C 65.68103700000002 137.41455 66.87879200000002 136.75951 69.48546200000001 134.88355 C 70.01520800000002 134.50231000000002 70.80187000000001 133.97766000000001 71.23360100000001 133.71766000000002 L 72.01857000000001 133.24494 L 72.04766000000001 133.52190000000002 C 72.09208000000001 133.94475000000003 71.769197 134.47168000000002 70.885964 135.41774 C 70.443475 135.89170000000001 70.08143700000001 136.30916000000002 70.08143700000001 136.34542000000002 C 70.08143700000001 136.38172000000003 70.710513 136.41132000000002 71.47938300000001 136.41132000000002 C 72.65854100000001 136.41132000000002 72.91734300000002 136.43752 73.13302900000001 136.57886000000002 C 73.43193400000001 136.77471000000003 73.46621 137.07191000000003 73.20595900000001 137.21119000000002 C 73.10543000000001 137.26499 72.61851700000001 137.30899000000002 72.12392700000001 137.30899000000002 C 70.33669400000001 137.30899000000002 69.970736 137.53055000000003 69.90742900000001 138.65088000000003 C 69.87877900000001 139.15787000000003 69.912429 139.36953000000003 70.07530500000001 139.70592000000002 C 70.34691300000001 140.26698000000002 70.76803400000001 140.43657000000002 71.98280800000002 140.47408000000001 C 72.90248700000002 140.50248000000002 73.29423900000002 140.61306000000002 73.29423900000002 140.84428000000003 C 73.29423900000002 141.12187000000003 72.98500200000002 141.21787000000003 71.89397200000002 141.27899000000002 C 71.28686600000002 141.31299 70.68023700000002 141.39403000000001 70.54590600000002 141.45908000000003 C 70.09579900000001 141.67701000000002 69.94775200000002 142.07563000000002 69.90840000000001 143.17558000000002 C 69.87712000000002 144.04987000000003 69.89768000000001 144.22485000000003 70.07183300000001 144.56620000000004 C 70.36335700000001 145.13764000000003 70.522011 145.19165000000004 71.93512300000002 145.20051000000004 C 72.95153000000002 145.20651000000004 73.22041300000002 145.23831000000004 73.42919300000001 145.37510000000003 C 73.60169300000001 145.48813000000004 73.67431100000002 145.60853000000003 73.65438200000001 145.74848000000003 C 73.60588200000001 146.08906000000002 73.05221200000001 146.20057000000003 71.30986400000002 146.22069000000002 C 69.57926400000002 146.24069000000003 69.22431700000001 146.15079000000003 69.03112400000002 145.64357 C 68.96901400000002 145.48051 68.94487400000001 144.21016 68.96431400000002 142.12819000000002 C 68.99549400000002 138.79007000000001 68.92566400000001 137.40160000000003 68.72684000000001 137.40583 C 68.522439 137.40983 65.21522100000001 139.36234000000002 65.18957 139.49379000000002 C 65.17536 139.56659000000002 65.37673600000001 139.74303 65.64595700000001 139.89365 C 66.33103000000001 140.27691000000002 67.09629500000001 141.09391 67.457626 141.8278 C 67.70835000000001 142.33704 67.77267 142.59314 67.80005700000001 143.19122 C 67.829637 143.83719 67.802857 143.99090999999999 67.581686 144.44288999999998 C 67.15373600000001 145.31758999999997 66.138524 146.02196999999998 65.125834 146.14682 C 64.7117 146.19791999999998 63.671856 146.07961999999998 62.562477 145.85529 L 62.272308 145.79659 L 62.279008000000005 147.62402 C 62.283908000000004 148.95317 62.251128 149.53334 62.158924000000006 149.75177 C 62.01507300000001 150.09256 61.870216000000006 150.17875999999998 61.64923900000001 150.05509999999998 z M 65.78696599999999 145.17417 C 66.676508 144.71993 67.10607999999999 143.96110000000002 67.04213899999999 142.95692 C 66.93145499999999 141.21865 65.44382999999999 140.16818 63.79111799999999 140.66125 C 62.42683399999999 141.06828 61.81665499999999 142.51507999999998 62.42385499999999 143.90317 C 62.66991199999999 144.46567 63.368509999999986 145.15515 63.86114299999999 145.32169 C 64.33176499999999 145.48078999999998 65.33735899999999 145.40379 65.78696599999999 145.17417 z" stroke-linecap="round" />
</g>
		<g transform="matrix(75.53 0 0 71.14 -132.42 -199.76)"  >
<path style="stroke: none; stroke-width: 0.09; stroke-dasharray: none; stroke-linecap: butt; stroke-dashoffset: 0; stroke-linejoin: miter; stroke-miterlimit: 4; fill: rgb(127,255,42); fill-rule: nonzero; opacity: 1;" vector-effect="non-scaling-stroke"  transform=" translate(-64.36, -127.66)" d="M 63.336247 131.81816 C 61.56098 131.4014 60.258436 129.56249 60.255184 127.46838000000001 C 60.251784 125.25064 61.668501 123.65751000000002 63.844837 123.43185000000001 C 65.253523 123.28579 66.390221 123.68756 67.276419 124.64475000000002 C 68.12255900000001 125.55869000000001 68.468534 126.46517000000001 68.472735 127.77920000000002 C 68.477935 129.40584 67.654832 130.77548000000002 66.271955 131.44127000000003 C 65.372996 131.87408000000002 64.210282 132.02335000000002 63.33624700000001 131.81816000000003 z M 65.608928 131.05874 C 67.093449 130.50331 67.879936 129.22032 67.795794 127.49133 C 67.747624 126.50142000000001 67.466779 125.81943000000001 66.824585 125.13288 C 66.169117 124.43213 65.621075 124.22155 64.459048 124.22396 C 63.589330999999994 124.22596 63.464262999999995 124.25016000000001 62.887936999999994 124.53033 C 61.716075999999994 125.10002 61.096163 126.08681 61.027809999999995 127.49133 C 60.891071 130.30114 63.079325999999995 132.00518 65.60892799999999 131.05874 z" stroke-linecap="round" />
</g>
		<g transform="matrix(75.53 0 0 71.14 817.27 771.63)"  >
<path style="stroke: none; stroke-width: 0.09; stroke-dasharray: none; stroke-linecap: butt; stroke-dashoffset: 0; stroke-linejoin: miter; stroke-miterlimit: 4; fill: rgb(127,255,42); fill-rule: nonzero; opacity: 1;" vector-effect="non-scaling-stroke"  transform=" translate(-76.94, -141.31)" d="M 75.845584 146.19571 C 74.837637 146.00556999999998 74.68949500000001 145.81448 74.508726 144.47125 C 74.43116599999999 143.8949 74.434696 143.30657 74.522746 142.13518 C 74.587476 141.27403999999999 74.667097 139.73144 74.69967 138.70718 C 74.75408999999999 136.99598 74.77413 136.83374999999998 74.946598 136.70774 C 75.24500499999999 136.48971 76.07658599999999 136.36431 77.20787999999999 136.36674 C 78.35882099999999 136.36874 78.912263 136.46134 79.139169 136.68825999999999 C 79.42158599999999 136.97068 79.092449 137.13028999999997 78.05355999999999 137.21471 C 77.54078999999999 137.25641 77.001545 137.33726 76.85523799999999 137.39444 C 76.70893399999999 137.45164 76.46442999999998 137.49842 76.31189799999999 137.49842 C 76.13276199999999 137.49842 76.03456699999998 137.54692 76.03456699999998 137.63529 C 76.03456699999998 137.71059 75.92921799999998 137.88584 75.80045599999998 138.02477 C 75.41660599999999 138.43895999999998 75.39958299999998 138.83035999999998 75.73572599999999 139.51316 C 76.08963799999998 140.23206 76.30550299999999 140.33324 77.48534599999998 140.33324 C 77.98138499999997 140.33324 78.43569499999998 140.38634 78.62858399999998 140.46697999999998 C 78.94698699999998 140.60001999999997 79.22513499999998 140.95386999999997 79.10547699999998 141.07366 C 79.07098699999997 141.10816 78.47530599999997 141.15766 77.78173799999998 141.18367999999998 C 76.36090899999998 141.23687999999999 76.08511299999998 141.34750999999997 75.87453699999998 141.94849 C 75.75593399999998 142.28697 75.71305599999998 144.10672 75.80988699999997 144.69218999999998 L 75.86660699999997 145.03515 L 77.24987699999997 145.07934999999998 C 78.83507299999997 145.13004999999998 79.46915699999997 145.3001 79.41769299999997 145.66073999999998 C 79.36289299999997 146.04479999999998 78.77662099999998 146.22108999999998 77.45827899999998 146.24991999999997 C 76.80516599999997 146.26421999999997 76.07945099999998 146.23981999999998 75.84557799999997 146.19571999999997 z" stroke-linecap="round" />
</g>
		<g transform="matrix(75.53 0 0 71.14 1333.34 1025.55)"  >
<path style="stroke: none; stroke-width: 0.09; stroke-dasharray: none; stroke-linecap: butt; stroke-dashoffset: 0; stroke-linejoin: miter; stroke-miterlimit: 4; fill: rgb(127,255,42); fill-rule: nonzero; opacity: 1;" vector-effect="non-scaling-stroke"  transform=" translate(-83.77, -144.88)" d="M 80.753702 149.80995 C 80.65840200000001 149.62216999999998 80.615656 149.13890999999998 80.605022 148.129 C 80.596822 147.34941999999998 80.558142 145.96744999999999 80.519092 145.05794 C 80.41546 142.64437 80.667854 141.48189 81.485239 140.60804 C 82.09747200000001 139.95351 82.68613300000001 139.72186 83.73583300000001 139.72236999999998 C 84.43751100000001 139.72262999999998 84.66529000000001 139.76166999999998 85.03796400000002 139.94526 C 85.75119300000001 140.29656 86.38443400000001 140.92840999999999 86.73312800000002 141.6367 C 87.00600600000003 142.191 87.04295500000002 142.35714 87.04171200000002 143.02433 C 87.04061200000002 143.59796 86.99077200000002 143.89018 86.83665400000002 144.22605 C 86.56264700000003 144.82316999999998 85.87485200000002 145.49077 85.21905800000002 145.79617 C 84.75861700000002 146.01058999999998 84.56461600000002 146.045 83.87757300000001 146.03412999999998 C 83.43581400000001 146.02712999999997 82.74746900000001 145.93872999999996 82.34791900000002 145.83755999999997 L 81.62146300000002 145.65368999999995 L 81.57221300000002 145.99364999999995 C 81.54512300000002 146.18062999999995 81.49526300000002 147.06307999999996 81.46140500000001 147.95465999999993 C 81.42670500000001 148.86854999999994 81.35184400000001 149.67200999999994 81.28980200000001 149.79645999999994 C 81.13241400000001 150.11213999999993 80.90991600000001 150.11773999999994 80.75370000000001 149.80995999999993 z M 84.870452 145.11924 C 86.086803 144.55281 86.551374 143.12114 85.955842 141.77437 C 85.548944 140.85418 84.896929 140.43264 83.877577 140.43073 C 82.841614 140.42873 82.007507 140.9537 81.630018 141.84514000000001 C 81.40033600000001 142.38754 81.446072 143.33421 81.730856 143.93241 C 82.048348 144.59932 82.228916 144.80722 82.743649 145.09851 C 83.32145200000001 145.42549 84.194524 145.434 84.870452 145.11921 z" stroke-linecap="round" />
</g>
</g>
</g>
</svg>